<mxfile host="app.diagrams.net" modified="2024-06-19T22:09:49.068Z" agent="Mozilla/5.0 (Windows NT 10.0; Win64; x64) AppleWebKit/537.36 (KHTML, like Gecko) Chrome/123.0.0.0 Safari/537.36 OPR/109.0.0.0 (Edition Yx GX)" etag="XrbBg-2BKApR44LizgRv" version="24.5.5" type="device">
  <diagram name="Страница — 1" id="9UZWEc21zUKaKx1Gjgyr">
    <mxGraphModel dx="2322" dy="1277" grid="1" gridSize="10" guides="1" tooltips="1" connect="1" arrows="1" fold="1" page="1" pageScale="1" pageWidth="827" pageHeight="1169" math="0" shadow="0">
      <root>
        <mxCell id="0" />
        <mxCell id="1" parent="0" />
        <mxCell id="2Yio0WVvEDvT5iqBwlih-5" value="Клиент" style="text;html=1;align=center;verticalAlign=middle;whiteSpace=wrap;rounded=0;" vertex="1" parent="1">
          <mxGeometry x="224" y="30" width="60" height="30" as="geometry" />
        </mxCell>
        <mxCell id="2Yio0WVvEDvT5iqBwlih-7" value="Инженер" style="text;html=1;align=center;verticalAlign=middle;whiteSpace=wrap;rounded=0;" vertex="1" parent="1">
          <mxGeometry x="664" y="40" width="60" height="30" as="geometry" />
        </mxCell>
        <mxCell id="2Yio0WVvEDvT5iqBwlih-10" style="edgeStyle=orthogonalEdgeStyle;rounded=0;orthogonalLoop=1;jettySize=auto;html=1;entryX=0.5;entryY=0;entryDx=0;entryDy=0;" edge="1" parent="1" source="2Yio0WVvEDvT5iqBwlih-8" target="2Yio0WVvEDvT5iqBwlih-9">
          <mxGeometry relative="1" as="geometry" />
        </mxCell>
        <mxCell id="2Yio0WVvEDvT5iqBwlih-8" value="" style="ellipse;whiteSpace=wrap;html=1;aspect=fixed;" vertex="1" parent="1">
          <mxGeometry x="669" y="80" width="50" height="50" as="geometry" />
        </mxCell>
        <mxCell id="2Yio0WVvEDvT5iqBwlih-28" style="edgeStyle=orthogonalEdgeStyle;rounded=0;orthogonalLoop=1;jettySize=auto;html=1;entryX=1;entryY=0.25;entryDx=0;entryDy=0;" edge="1" parent="1" source="2Yio0WVvEDvT5iqBwlih-9" target="2Yio0WVvEDvT5iqBwlih-11">
          <mxGeometry relative="1" as="geometry">
            <Array as="points">
              <mxPoint x="694" y="255" />
            </Array>
          </mxGeometry>
        </mxCell>
        <mxCell id="2Yio0WVvEDvT5iqBwlih-9" value="1.Составление задачи" style="rounded=1;whiteSpace=wrap;html=1;" vertex="1" parent="1">
          <mxGeometry x="634" y="160" width="120" height="60" as="geometry" />
        </mxCell>
        <mxCell id="2Yio0WVvEDvT5iqBwlih-22" style="edgeStyle=orthogonalEdgeStyle;rounded=0;orthogonalLoop=1;jettySize=auto;html=1;entryX=0.5;entryY=0;entryDx=0;entryDy=0;" edge="1" parent="1" source="2Yio0WVvEDvT5iqBwlih-11" target="2Yio0WVvEDvT5iqBwlih-18">
          <mxGeometry relative="1" as="geometry" />
        </mxCell>
        <mxCell id="2Yio0WVvEDvT5iqBwlih-11" value="2.Проверка условий" style="rounded=1;whiteSpace=wrap;html=1;" vertex="1" parent="1">
          <mxGeometry x="194" y="240" width="120" height="60" as="geometry" />
        </mxCell>
        <mxCell id="2Yio0WVvEDvT5iqBwlih-14" value="2б.Всё верно" style="rounded=1;whiteSpace=wrap;html=1;" vertex="1" parent="1">
          <mxGeometry x="324" y="380" width="120" height="60" as="geometry" />
        </mxCell>
        <mxCell id="2Yio0WVvEDvT5iqBwlih-15" value="" style="endArrow=none;html=1;rounded=0;jumpSize=1;strokeWidth=1.5;" edge="1" parent="1">
          <mxGeometry width="50" height="50" relative="1" as="geometry">
            <mxPoint x="414" y="1160" as="sourcePoint" />
            <mxPoint x="414" as="targetPoint" />
          </mxGeometry>
        </mxCell>
        <mxCell id="2Yio0WVvEDvT5iqBwlih-26" style="edgeStyle=orthogonalEdgeStyle;rounded=0;orthogonalLoop=1;jettySize=auto;html=1;entryX=0;entryY=0.5;entryDx=0;entryDy=0;" edge="1" parent="1" source="2Yio0WVvEDvT5iqBwlih-16" target="2Yio0WVvEDvT5iqBwlih-25">
          <mxGeometry relative="1" as="geometry">
            <Array as="points">
              <mxPoint x="124" y="510" />
            </Array>
          </mxGeometry>
        </mxCell>
        <mxCell id="2Yio0WVvEDvT5iqBwlih-16" value="2а.Корректировка" style="rounded=1;whiteSpace=wrap;html=1;" vertex="1" parent="1">
          <mxGeometry x="64" y="380" width="120" height="60" as="geometry" />
        </mxCell>
        <mxCell id="2Yio0WVvEDvT5iqBwlih-19" style="edgeStyle=orthogonalEdgeStyle;rounded=0;orthogonalLoop=1;jettySize=auto;html=1;" edge="1" parent="1" source="2Yio0WVvEDvT5iqBwlih-18" target="2Yio0WVvEDvT5iqBwlih-14">
          <mxGeometry relative="1" as="geometry">
            <Array as="points">
              <mxPoint x="314" y="405" />
              <mxPoint x="314" y="405" />
            </Array>
          </mxGeometry>
        </mxCell>
        <mxCell id="2Yio0WVvEDvT5iqBwlih-18" value="" style="rhombus;whiteSpace=wrap;html=1;" vertex="1" parent="1">
          <mxGeometry x="214" y="380" width="80" height="50" as="geometry" />
        </mxCell>
        <mxCell id="2Yio0WVvEDvT5iqBwlih-21" style="edgeStyle=orthogonalEdgeStyle;rounded=0;orthogonalLoop=1;jettySize=auto;html=1;entryX=0.992;entryY=0.408;entryDx=0;entryDy=0;entryPerimeter=0;" edge="1" parent="1" source="2Yio0WVvEDvT5iqBwlih-18" target="2Yio0WVvEDvT5iqBwlih-16">
          <mxGeometry relative="1" as="geometry" />
        </mxCell>
        <mxCell id="2Yio0WVvEDvT5iqBwlih-23" value="Да" style="text;html=1;align=center;verticalAlign=middle;whiteSpace=wrap;rounded=0;" vertex="1" parent="1">
          <mxGeometry x="274" y="370" width="60" height="30" as="geometry" />
        </mxCell>
        <mxCell id="2Yio0WVvEDvT5iqBwlih-24" value="Нет" style="text;html=1;align=center;verticalAlign=middle;whiteSpace=wrap;rounded=0;" vertex="1" parent="1">
          <mxGeometry x="174" y="370" width="60" height="30" as="geometry" />
        </mxCell>
        <mxCell id="2Yio0WVvEDvT5iqBwlih-29" style="edgeStyle=orthogonalEdgeStyle;rounded=0;orthogonalLoop=1;jettySize=auto;html=1;entryX=1;entryY=0.5;entryDx=0;entryDy=0;" edge="1" parent="1" source="2Yio0WVvEDvT5iqBwlih-25" target="2Yio0WVvEDvT5iqBwlih-11">
          <mxGeometry relative="1" as="geometry">
            <Array as="points">
              <mxPoint x="694" y="270" />
            </Array>
          </mxGeometry>
        </mxCell>
        <mxCell id="2Yio0WVvEDvT5iqBwlih-32" style="edgeStyle=orthogonalEdgeStyle;rounded=0;orthogonalLoop=1;jettySize=auto;html=1;entryX=0.5;entryY=0;entryDx=0;entryDy=0;" edge="1" parent="1" source="2Yio0WVvEDvT5iqBwlih-25" target="2Yio0WVvEDvT5iqBwlih-30">
          <mxGeometry relative="1" as="geometry" />
        </mxCell>
        <mxCell id="2Yio0WVvEDvT5iqBwlih-25" value="3.Исправление" style="rounded=1;whiteSpace=wrap;html=1;" vertex="1" parent="1">
          <mxGeometry x="634" y="480" width="120" height="60" as="geometry" />
        </mxCell>
        <mxCell id="2Yio0WVvEDvT5iqBwlih-34" style="edgeStyle=orthogonalEdgeStyle;rounded=0;orthogonalLoop=1;jettySize=auto;html=1;entryX=1;entryY=0.5;entryDx=0;entryDy=0;" edge="1" parent="1" source="2Yio0WVvEDvT5iqBwlih-30" target="2Yio0WVvEDvT5iqBwlih-33">
          <mxGeometry relative="1" as="geometry">
            <Array as="points">
              <mxPoint x="694" y="710" />
            </Array>
          </mxGeometry>
        </mxCell>
        <mxCell id="2Yio0WVvEDvT5iqBwlih-30" value="4.Выполнение задачи" style="rounded=1;whiteSpace=wrap;html=1;" vertex="1" parent="1">
          <mxGeometry x="634" y="600" width="120" height="60" as="geometry" />
        </mxCell>
        <mxCell id="2Yio0WVvEDvT5iqBwlih-39" style="edgeStyle=orthogonalEdgeStyle;rounded=0;orthogonalLoop=1;jettySize=auto;html=1;entryX=0.5;entryY=0;entryDx=0;entryDy=0;" edge="1" parent="1" source="2Yio0WVvEDvT5iqBwlih-33" target="2Yio0WVvEDvT5iqBwlih-38">
          <mxGeometry relative="1" as="geometry" />
        </mxCell>
        <mxCell id="2Yio0WVvEDvT5iqBwlih-33" value="5.Проверка выполненной задачи" style="rounded=1;whiteSpace=wrap;html=1;" vertex="1" parent="1">
          <mxGeometry x="194" y="680" width="120" height="60" as="geometry" />
        </mxCell>
        <mxCell id="2Yio0WVvEDvT5iqBwlih-46" value="" style="edgeStyle=orthogonalEdgeStyle;rounded=0;orthogonalLoop=1;jettySize=auto;html=1;" edge="1" parent="1" source="2Yio0WVvEDvT5iqBwlih-38" target="2Yio0WVvEDvT5iqBwlih-41">
          <mxGeometry relative="1" as="geometry" />
        </mxCell>
        <mxCell id="2Yio0WVvEDvT5iqBwlih-48" style="edgeStyle=orthogonalEdgeStyle;rounded=0;orthogonalLoop=1;jettySize=auto;html=1;entryX=1;entryY=0.5;entryDx=0;entryDy=0;" edge="1" parent="1" source="2Yio0WVvEDvT5iqBwlih-38" target="2Yio0WVvEDvT5iqBwlih-40">
          <mxGeometry relative="1" as="geometry" />
        </mxCell>
        <mxCell id="2Yio0WVvEDvT5iqBwlih-38" value="" style="rhombus;whiteSpace=wrap;html=1;" vertex="1" parent="1">
          <mxGeometry x="214" y="780" width="80" height="40" as="geometry" />
        </mxCell>
        <mxCell id="2Yio0WVvEDvT5iqBwlih-51" style="edgeStyle=orthogonalEdgeStyle;rounded=0;orthogonalLoop=1;jettySize=auto;html=1;entryX=0;entryY=0.5;entryDx=0;entryDy=0;" edge="1" parent="1" source="2Yio0WVvEDvT5iqBwlih-40" target="2Yio0WVvEDvT5iqBwlih-50">
          <mxGeometry relative="1" as="geometry">
            <Array as="points">
              <mxPoint x="124" y="950" />
            </Array>
          </mxGeometry>
        </mxCell>
        <mxCell id="2Yio0WVvEDvT5iqBwlih-40" value="5а.Всё выполнено" style="rounded=1;whiteSpace=wrap;html=1;" vertex="1" parent="1">
          <mxGeometry x="64" y="770" width="120" height="60" as="geometry" />
        </mxCell>
        <mxCell id="2Yio0WVvEDvT5iqBwlih-44" style="edgeStyle=orthogonalEdgeStyle;rounded=0;orthogonalLoop=1;jettySize=auto;html=1;entryX=0;entryY=0.5;entryDx=0;entryDy=0;" edge="1" parent="1" source="2Yio0WVvEDvT5iqBwlih-41" target="2Yio0WVvEDvT5iqBwlih-43">
          <mxGeometry relative="1" as="geometry">
            <Array as="points">
              <mxPoint x="374" y="870" />
            </Array>
          </mxGeometry>
        </mxCell>
        <mxCell id="2Yio0WVvEDvT5iqBwlih-41" value="5а.Не всё сделано" style="rounded=1;whiteSpace=wrap;html=1;" vertex="1" parent="1">
          <mxGeometry x="314" y="770" width="120" height="60" as="geometry" />
        </mxCell>
        <mxCell id="2Yio0WVvEDvT5iqBwlih-43" value="6.Пересмотр места выполненной задачи" style="rounded=1;whiteSpace=wrap;html=1;" vertex="1" parent="1">
          <mxGeometry x="644" y="840" width="120" height="60" as="geometry" />
        </mxCell>
        <mxCell id="2Yio0WVvEDvT5iqBwlih-45" style="edgeStyle=orthogonalEdgeStyle;rounded=0;orthogonalLoop=1;jettySize=auto;html=1;entryX=0.584;entryY=1.01;entryDx=0;entryDy=0;entryPerimeter=0;" edge="1" parent="1" source="2Yio0WVvEDvT5iqBwlih-43" target="2Yio0WVvEDvT5iqBwlih-30">
          <mxGeometry relative="1" as="geometry" />
        </mxCell>
        <mxCell id="2Yio0WVvEDvT5iqBwlih-47" value="Да" style="text;html=1;align=center;verticalAlign=middle;whiteSpace=wrap;rounded=0;" vertex="1" parent="1">
          <mxGeometry x="174" y="770" width="60" height="30" as="geometry" />
        </mxCell>
        <mxCell id="2Yio0WVvEDvT5iqBwlih-49" value="Нет" style="text;html=1;align=center;verticalAlign=middle;whiteSpace=wrap;rounded=0;" vertex="1" parent="1">
          <mxGeometry x="264" y="770" width="60" height="30" as="geometry" />
        </mxCell>
        <mxCell id="2Yio0WVvEDvT5iqBwlih-54" style="edgeStyle=orthogonalEdgeStyle;rounded=0;orthogonalLoop=1;jettySize=auto;html=1;entryX=0.5;entryY=0;entryDx=0;entryDy=0;" edge="1" parent="1" source="2Yio0WVvEDvT5iqBwlih-50" target="2Yio0WVvEDvT5iqBwlih-53">
          <mxGeometry relative="1" as="geometry" />
        </mxCell>
        <mxCell id="2Yio0WVvEDvT5iqBwlih-50" value="6.Рассчёт затрат" style="rounded=1;whiteSpace=wrap;html=1;" vertex="1" parent="1">
          <mxGeometry x="644" y="920" width="120" height="60" as="geometry" />
        </mxCell>
        <mxCell id="2Yio0WVvEDvT5iqBwlih-58" style="edgeStyle=orthogonalEdgeStyle;rounded=0;orthogonalLoop=1;jettySize=auto;html=1;entryX=1;entryY=0.5;entryDx=0;entryDy=0;" edge="1" parent="1" source="2Yio0WVvEDvT5iqBwlih-53" target="2Yio0WVvEDvT5iqBwlih-56">
          <mxGeometry relative="1" as="geometry" />
        </mxCell>
        <mxCell id="2Yio0WVvEDvT5iqBwlih-53" value="&amp;nbsp;7.изменение статуса задачи" style="rounded=1;whiteSpace=wrap;html=1;" vertex="1" parent="1">
          <mxGeometry x="644" y="1010" width="120" height="60" as="geometry" />
        </mxCell>
        <mxCell id="2Yio0WVvEDvT5iqBwlih-59" style="edgeStyle=orthogonalEdgeStyle;rounded=0;orthogonalLoop=1;jettySize=auto;html=1;entryX=0.5;entryY=0;entryDx=0;entryDy=0;" edge="1" parent="1" source="2Yio0WVvEDvT5iqBwlih-56" target="2Yio0WVvEDvT5iqBwlih-57">
          <mxGeometry relative="1" as="geometry" />
        </mxCell>
        <mxCell id="2Yio0WVvEDvT5iqBwlih-56" value="8.Проверка статуса задачи" style="rounded=1;whiteSpace=wrap;html=1;" vertex="1" parent="1">
          <mxGeometry x="224" y="1010" width="120" height="60" as="geometry" />
        </mxCell>
        <mxCell id="2Yio0WVvEDvT5iqBwlih-57" value="" style="ellipse;whiteSpace=wrap;html=1;aspect=fixed;" vertex="1" parent="1">
          <mxGeometry x="259" y="1090" width="50" height="50" as="geometry" />
        </mxCell>
      </root>
    </mxGraphModel>
  </diagram>
</mxfile>
